<svg height="500pt" preserveAspectRatio="xMidYMid meet" viewBox="0 0 500 500" width="500pt" xmlns="http://www.w3.org/2000/svg"><path d="m1691 3339c-60-18-107-55-132-106l-24-48v-1429-1428l-30-24c-26-21-41-24-111-24-75 0-82 2-107 28l-27 28v1078c0 752-3 1090-11 1121-6 24-27 62-46 84-56 65-97 73-380 69-231-3-239-4-288-28-36-18-56-37-75-70l-25-45-3-1105-2-1104-27-28-27-28h-162c-148 0-163-2-188-21-25-20-26-23-26-140v-119h2500 2500v119c0 117-1 120-26 140-25 19-40 21-188 21h-162l-27 28-27 28-2 1404-3 1405-25 45c-19 34-38 52-79 73l-55 27h-251c-251 0-251 0-303-26-43-21-58-36-80-78l-27-51-3-1400-2-1399-27-28c-25-26-32-28-107-28-73 0-84 3-109 25l-27 26v1082c0 694-4 1095-10 1118-17 59-52 102-105 129-48 24-58 25-283 28-321 5-369-10-412-125-20-53-20-76-20-1140v-1087l-27-28c-25-26-32-28-113-28s-88 2-113 28l-27 28v1412c0 1400 0 1412-21 1466-43 117-100 136-398 135-119 0-231-5-250-10zm513-138c15-14 31-41 37-60 6-24 9-496 7-1421l-3-1385-297-3-298-2v1405c0 1539-4 1446 58 1480 22 12 66 14 249 12 219-2 222-2 247-26zm2191-50c16-9 36-28 42-42 10-19 13-326 13-1399v-1375l-295-2-295-3 2 1389 3 1389 24 26c14 15 39 31 55 35 17 5 119 7 226 4 157-4 201-9 225-22zm-3603-577c3-3-2-20-11-37-14-29-16-133-19-1117l-2-1085-105-3-105-3v1084 1084l22 28c12 15 35 33 52 41 30 13 157 19 168 8zm2492-9c71-34 66 47 66-1154v-1081h-300-300v1079 1078l23 34c37 56 52 59 275 59 162 0 211-3 236-15z" transform="matrix(.1 0 0 -.1 0 500)"/></svg>